<svg width="36" height="28" viewBox="0 0 36 28" fill="none" xmlns="http://www.w3.org/2000/svg">
<path d="M3.76569 27.5184C2.79686 27.5184 1.96778 27.1887 1.27844 26.5291C0.589106 25.8696 0.24385 25.0757 0.242676 24.1476V3.92291C0.242676 2.99595 0.587932 2.20269 1.27844 1.54314C1.96895 0.883585 2.79804 0.553248 3.76569 0.552124H31.9498C32.9187 0.552124 33.7483 0.882461 34.4388 1.54314C35.1294 2.20381 35.474 2.99707 35.4729 3.92291V24.1476C35.4729 25.0746 35.1282 25.8684 34.4388 26.5291C33.7495 27.1898 32.9198 27.5196 31.9498 27.5184H3.76569ZM17.8578 15.7207L3.76569 7.2937V24.1476H31.9498V7.2937L17.8578 15.7207ZM17.8578 12.3499L31.9498 3.92291H3.76569L17.8578 12.3499ZM3.76569 7.2937V3.92291V24.1476V7.2937Z" fill="white"/>
</svg>
